<?xml version="1.0" encoding="UTF-8"?>
<svg id="Layer_2" data-name="Layer 2" xmlns="http://www.w3.org/2000/svg" viewBox="0 0 605.59 566.52">
  <g id="Layer_1-2" data-name="Layer 1">
    <g>
      <path d="M278.22.59c163.14-9.76,303.3,102.52,324.75,265.09,33.47,253.71-260.44,364.05-459.29,264.48C-118.92,398.66,9.72,16.65,278.22.59ZM288.21,50.54c-63.18,3.42-121.46,29.01-164.15,75.62C-.22,261.87,35.09,459.03,225.29,500.5c156.71,34.16,347.11-37.49,326.74-225.84-14.3-132.27-130.71-231.33-263.82-224.11Z"/>
      <g>
        <path d="M393.09,174.41c33.89-3.67,56.34,36.03,63.29,64.02,9.26,37.32,5,101.29-34.05,121.05-47.99,24.28-75.5-45.37-77.96-81.97-2.16-32.19,7.88-98.68,48.72-103.11Z"/>
        <path d="M203.28,174.41c45.6-5.26,58.81,64.89,57.21,98.16-1.7,35.41-27.31,110.27-75.95,87.86-62.19-28.66-48.23-178.3,18.74-186.02Z"/>
      </g>
    </g>
  </g>
</svg>