<?xml version="1.0" encoding="UTF-8"?>
<svg id="Layer_2" data-name="Layer 2" xmlns="http://www.w3.org/2000/svg" viewBox="0 0 1081.42 1081.42">
  <defs>
    <style>
      .cls-1 {
        fill: none;
      }

      .cls-2 {
        fill: #ee8d74;
      }

      .cls-3 {
        fill: #4c4344;
      }

      .cls-4 {
        fill: #e17863;
      }

      .cls-5 {
        fill: #f4c04e;
      }

      .cls-6 {
        fill: #eda942;
      }
    </style>
  </defs>
  <g id="Layer_1-2" data-name="Layer 1">
    <g>
      <path class="cls-2" d="M465.35,312.35l1.98,2.65c-4.1.37-24.09,13.76-20.69,17.36l85.5,20.03c-15.79,3.87-73.68,24.03-82.11,36.09-11.37,16.26,8.78,31.61,24.14,33.16,13.18,1.33,36.72-12.86,49.98-17.85,51.82-19.52,103-25.3,158.34-23.43,11.25.38,48.87,9.29,52.42-6.23,5.19-22.68-31.59-26.11-47.32-28.22-25.58-3.43-56.14-4.11-81.97-2.86,16.07-4.5,33.55-12.37,48.12-20.66,3.11-1.77,7.24-3.96,9.99-6.03,3.34-2.52,4.2-6.62,8.69-8.01,24.65,2.1,65.64,20.9,87.24,33.63,53.01,31.25,92.24,75.22,121.17,129.19,2.34,4.36,3.98,10.46,6.17,14.53.9,1.67,3.26,6.25,5.84,5.48.66-5.44-8.49-15.59-9.12-18.27-1.24-5.22,6.32-19.81,1.11-27.09-2.31-3.24-5.37-3.46-5.36-10.01,0-6.94,9.94-19.32,16.78-20.62,21.34-4.03,32.39,26.96,33.83,43.48,2.46,28.04-9.48,49.9-25.08,71.84,25.01,85.9,14.3,164.08-26.15,242.32-3.46,6.68-8.11,11.27-10.05,18.66-5.54,21.06-1.63,88.14-1.36,114.13.02,2.25-.85,5.93,1.36,7.32.18,1.51-1.09,2.9-1.34,4l-1.31.66,1.31.67c-14.1,50.01-100.5,49.51-136.26,24.02-2.54-1.31-3.8-2.43-2.05-5.36,1.58-2.64,13.89-11.39,17.45-15.95,7.86-10.08,13.28-25.99,13.98-38.73-11.93,4.41-21.98,12.71-33.56,17.85-4.83,2.14-9.91,3.18-14.53,4.84-33.78,12.11-68.52,20.15-104.02,25.55-1.92,18.82,2.57,49.59-8.99,65.09-12.77,17.11-37.52,24.29-57.99,25.48-6.79-2.24-17.36-2.24-24.05,0-23.11-1.56-61.35-13.36-64.11-40.72-1.76-17.49,1.29-37.59-.02-55.36l-49.42-10.69c-19.94-7.37-40.09-14.5-58.84-24.63-6.37-3.44-43.62-26.7-45.35-30.78-1.2-2.82,2-1.73,3.28-2.01,62.2-13.57,87.84-82.89,66.21-139.48-15.84-41.44-64.01-86.22-110.18-87.44-16.62-.44-32.85,4.66-48.82,8.08-.36,2.22,3.22,1.43,4.71,1.39,45.02-1.22,97.43,39.75,114.83,80.01,22.2,51.35-3.63,124.42-66.12,125.44-40.82.67-87.61-34.41-102.68-71.59-12.91-31.85-12.44-85.9,10.54-113.21,5.25-6.25,11.46-9.46,17.08-14.97,1.46-70.42,21.62-139.42,61.38-197.49-15.08-48.28-63.86-162.11,14.72-178.92,38.89-8.32,78.75,13.13,107.81,37.03,5.09,4.19,29,28.57,31.06,29.14,1.54.42,2.96.25,4.4-.39,18.35-9.49,37.68-16.28,57.42-22.1ZM538.36,513c28.17,31.09,49.76,62.78,71.88,98.36,10.23,9.38,18.74-6.24,23.21-14.31,17.98-32.44,27.31-76.31,13.62-111.9-13.07-34-57.13-32.48-85.09-19.55-8.02,3.71-30.88,21.09-34.16,28.59-4,9.16,5.74,13.52,10.54,18.81ZM904.86,525.88c-1.26-7.17-4.02-15.27-6.62-22.06-1.21-3.15-2.42-8.17-5.38-9.96,2.74,9.68,5.97,19.36,9.2,28.9.7,2.06-1.19,3.82,2.8,3.13ZM265.94,534.2c-20.56,4.22-30.62,51.93-15.01,65.1,15.38,12.98,31.39-10.18,35.49-23.3,4.85-15.53,1.96-46.42-20.48-41.81ZM420.92,595.61c-7.45,1.9-17.31,17.34-19.62,24.44-13.57,41.83,28.89,57.98,46.52,21.11,10.11-21.15,2.17-52.95-26.9-45.55ZM200.5,707.7c-13.16,2.07-15.76,21.13-16.87,32.55-1.1,11.36-2.53,22.52,7.97,29.08,14.19,8.87,23.88,6.29,28.61-9.89,4.62-15.82,5.1-55.65-19.71-51.74ZM265.8,723.85c-9.92.76-13.19,21.28-14.03,29.75-1.29,13.02.02,21.94,11.2,29.86,19.73,13.97,24.31-12.6,23.35-27.33-.84-12.84-4.24-33.53-20.52-32.27Z"/>
      <path class="cls-4" d="M508.1,301.67c19.9,17.16,35.76,17.89,60.12,21.35,26.54,3.77,42.74,7.64,69.41-2.06,8.35-3.04,19.84-11.67,26.77-12.62,2.11-.29,5.8-.19,8.02,0-4.49,1.39-5.34,5.49-8.69,8.01-2.75,2.07-6.88,4.26-9.99,6.03-14.57,8.29-32.05,16.16-48.12,20.66-22.22,1.08-44.35,3.41-66.4,7.98-.6.12-1.19.17-1.19.17-2.41.37-4.41.82-5.88,1.18l-85.5-20.03c-3.41-3.6,16.58-16.99,20.69-17.36l-1.98-2.65c14.11-4.16,28.21-8.19,42.75-10.68Z"/>
      <path class="cls-4" d="M712.5,904.91c4.62-1.66,9.7-2.7,14.53-4.84,11.58-5.14,21.63-13.43,33.56-17.85-.7,12.74-6.12,28.66-13.98,38.73-3.56,4.56-15.87,13.32-17.45,15.95-1.76,2.93-.49,4.06,2.05,5.36-2.95-2.1-7.71-4.32-10.23-7.13-7.54-8.36-9.2-19.27-8.47-30.24Z"/>
      <path class="cls-4" d="M868.8,912.92c-2.21-1.39-1.34-5.07-1.36-7.32-.27-25.99-4.18-93.07,1.36-114.13v121.45Z"/>
      <path class="cls-4" d="M884.83,445.81c5.21,7.29-2.35,21.88-1.11,27.09.64,2.68,9.79,12.83,9.12,18.27-2.58.77-4.94-3.81-5.84-5.48-2.19-4.07-3.84-10.17-6.17-14.53,4.92-7.63.92-17.14,4.01-25.36Z"/>
      <path class="cls-4" d="M541.5,1021.02c-7.25.42-16.83.49-24.05,0,6.69-2.24,17.26-2.24,24.05,0Z"/>
      <path class="cls-4" d="M867.46,918.26l-1.31-.67,1.31-.66c-.1.43.11.93,0,1.33Z"/>
      <path class="cls-4" d="M538.36,513c-4.8-5.29-14.54-9.66-10.54-18.81,3.28-7.51,26.14-24.88,34.16-28.59,27.96-12.93,72.02-14.45,85.09,19.55,13.69,35.6,4.36,79.46-13.62,111.9-4.47,8.07-12.97,23.69-23.21,14.31-22.12-35.58-43.71-67.26-71.88-98.36Z"/>
      <path class="cls-3" d="M420.92,595.61c29.06-7.39,37,24.41,26.9,45.55-17.62,36.87-60.09,20.72-46.52-21.11,2.31-7.11,12.17-22.55,19.62-24.44Z"/>
      <path class="cls-3" d="M265.94,534.2c22.44-4.61,25.33,26.28,20.48,41.81-4.1,13.12-20.11,36.28-35.49,23.3-15.61-13.17-5.55-60.88,15.01-65.1Z"/>
      <g>
        <path class="cls-4" d="M263.63,844.86c62.49-1.03,88.31-74.09,66.12-125.44-17.4-40.27-69.82-81.24-114.83-80.01-1.49.04-5.07.83-4.71-1.39,15.98-3.42,32.2-8.52,48.82-8.08,46.17,1.22,94.33,46,110.18,87.44,21.64,56.59-4,125.9-66.21,139.48-1.28.28-4.48-.81-3.28,2.01,1.73,4.07,38.97,27.33,45.35,30.78,18.75,10.13,38.9,17.26,58.84,24.63,3.15,39.26-51.23,48.87-80.87,46.76-17.69-1.26-55.6-11.07-59.08-31.74l-.32-84.43Z"/>
        <path class="cls-4" d="M200.5,707.7c24.81-3.91,24.33,35.92,19.71,51.74-4.72,16.18-14.42,18.76-28.61,9.89-10.5-6.56-9.07-17.72-7.97-29.08,1.11-11.42,3.7-30.48,16.87-32.55Z"/>
        <path class="cls-4" d="M265.8,723.85c16.28-1.25,19.67,19.43,20.52,32.27.97,14.74-3.62,41.31-23.35,27.33-11.18-7.92-12.49-16.84-11.2-29.86.84-8.47,4.11-28.99,14.03-29.75Z"/>
      </g>
      <path class="cls-4" d="M904.86,525.88c-3.99.7-2.11-1.06-2.8-3.13-3.22-9.54-6.46-19.22-9.2-28.9,2.96,1.79,4.17,6.81,5.38,9.96,2.61,6.79,5.36,14.9,6.62,22.06Z"/>
      <path class="cls-3" d="M532.15,352.38c.54-.13.88-.21,1.35-.32,25.97-6.12,48.47-8.17,72.12-9.02,45.92-1.66,74.83,1.9,81.97,2.86,15.74,2.11,52.51,5.55,47.32,28.22-3.55,15.52-41.17,6.61-52.42,6.23-55.34-1.86-106.52,3.92-158.34,23.43-13.25,4.99-36.8,19.18-49.98,17.85-15.35-1.55-35.5-16.91-24.14-33.16,8.43-12.05,66.32-32.21,82.11-36.09Z"/>
      <g>
        <path class="cls-5" d="M640.36,65.44c97.44,29.36,116.91,144.93,52.78,217.56-8.54,9.67-19.31,16.66-28.74,25.34-6.93.95-18.42,9.59-26.77,12.62-26.67,9.7-42.88,5.83-69.41,2.06-21.46-8.49-39.45-21.11-52.65-40.16-58.99-85.21,2.36-219.34,109.64-218.24,5,.05,10.62,3.39,15.14.82ZM556.66,121.96c-70.75,67.77-27.65,203.98,75.65,168.33,69.26-23.9,94.01-131.78,33.86-177.91-32.32-24.79-80.98-17.75-109.52,9.58Z"/>
        <path class="cls-6" d="M640.36,65.44c-4.53,2.57-10.15-.77-15.14-.82-107.29-1.1-168.63,133.03-109.64,218.24,13.19,19.05,31.18,31.67,52.65,40.16-24.36-3.46-40.22-4.19-60.12-21.35-107.27-92.53-16.83-281.14,132.26-236.23Z"/>
        <path class="cls-6" d="M556.66,121.96c28.54-27.33,77.2-34.37,109.52-9.58,60.14,46.13,35.4,154.01-33.86,177.91-103.3,35.65-146.41-100.56-75.65-168.33ZM596.45,209.39c-.85-.49-9.29-13.4-11.52-15.84-7.07-7.76-14.11-12.23-22.65-2.58-10.95,12.37.64,23.11,8.08,33.15,3.79,5.12,18.58,24.76,23.17,26.24,5.12,1.65,9.1.01,13.38-2.8l53.27-65.56c10.24-16.88-7.25-35.95-22.48-19.79l-36.66,46.12c-1.14,1.14-3.19,1.86-4.59,1.06Z"/>
        <path class="cls-5" d="M596.45,209.39c1.4.8,3.45.08,4.59-1.06l36.66-46.12c15.22-16.16,32.71,2.91,22.48,19.79l-53.27,65.56c-4.28,2.81-8.26,4.45-13.38,2.8-4.58-1.48-19.38-21.12-23.17-26.24-7.43-10.04-19.02-20.78-8.08-33.15,8.54-9.66,15.58-5.18,22.65,2.58,2.22,2.44,10.67,15.35,11.52,15.84Z"/>
      </g>
    </g>
    <rect class="cls-1" width="1081.42" height="1081.42"/>
  </g>
</svg>